HIERARCHY
ROOT Hips
{
  OFFSET 5.84602e-005 68.8428 3.50346
  CHANNELS 6 Xposition Yposition Zposition Zrotation Xrotation Yrotation
  JOINT Spine
  {
    OFFSET 0 8.597 -4.6522
    CHANNELS 3 Zrotation Xrotation Yrotation
    JOINT Spine1
    {
      OFFSET 0 7.8454 0.4098
      CHANNELS 3 Zrotation Xrotation Yrotation
      JOINT Spine2
      {
        OFFSET 0 9.7078 -2.1609
        CHANNELS 3 Zrotation Xrotation Yrotation
        JOINT Neck
        {
          OFFSET 0 21.8761 -0.4549
          CHANNELS 3 Zrotation Xrotation Yrotation
          JOINT Head
          {
            OFFSET 0 12.3537 3.3602
            CHANNELS 3 Zrotation Xrotation Yrotation
            End Site
            {
              OFFSET 0.0001 18.9506 0.5657
            }
          }
        }
        JOINT LeftShoulder
        {
          OFFSET 2.2086 21.1115 7.2329
          CHANNELS 3 Zrotation Xrotation Yrotation
          JOINT LeftArm
          {
            OFFSET 13.1193 3.0282 -4.8998
            CHANNELS 3 Zrotation Xrotation Yrotation
            JOINT LeftForeArm
            {
              OFFSET 27.4081 -0.0973053 -0.2375
              CHANNELS 3 Zrotation Xrotation Yrotation
              JOINT LeftHand
              {
                OFFSET 22.8641 0.0662994 -0.1369
                CHANNELS 3 Zrotation Xrotation Yrotation
                JOINT LeftHandIndex1
                {
                  OFFSET 8.8614 0.775009 2.4612
                  CHANNELS 3 Zrotation Xrotation Yrotation
                  JOINT LeftHandIndex2
                  {
                    OFFSET 3.3146 -0.808304 0.5841
                    CHANNELS 3 Zrotation Xrotation Yrotation
                    JOINT LeftHandIndex3
                    {
                      OFFSET 2.2628 -0.552002 0.3989
                      CHANNELS 3 Zrotation Xrotation Yrotation
                      End Site
                      {
                        OFFSET 1.6102 -0.4807 0.2612
                      }
                    }
                  }
                }
                JOINT LeftHandMiddle1
                {
                  OFFSET 8.9937 0.895004 0.2143
                  CHANNELS 3 Zrotation Xrotation Yrotation
                  JOINT LeftHandMiddle2
                  {
                    OFFSET 4.0984 0.0113983 -0.0242
                    CHANNELS 3 Zrotation Xrotation Yrotation
                    JOINT LeftHandMiddle3
                    {
                      OFFSET 2.2716 0.00689697 -0.0138001
                      CHANNELS 3 Zrotation Xrotation Yrotation
                      End Site
                      {
                        OFFSET 2.0404 -0.1441 0.0027
                      }
                    }
                  }
                }
                JOINT LeftHandRing1
                {
                  OFFSET 8.5234 0.597198 -2.0164
                  CHANNELS 3 Zrotation Xrotation Yrotation
                  JOINT LeftHandRing2
                  {
                    OFFSET 3.7188 -0.188293 -0.2328
                    CHANNELS 3 Zrotation Xrotation Yrotation
                    JOINT LeftHandRing3
                    {
                      OFFSET 2.1191 -0.106598 -0.1332
                      CHANNELS 3 Zrotation Xrotation Yrotation
                      End Site
                      {
                        OFFSET 1.8737 -0.2304 -0.0886
                      }
                    }
                  }
                }
                JOINT LeftHandPinky1
                {
                  OFFSET 7.9094 -0.601089 -3.4825
                  CHANNELS 3 Zrotation Xrotation Yrotation
                  JOINT LeftHandPinky2
                  {
                    OFFSET 2.2874 -0.477005 -0.6314
                    CHANNELS 3 Zrotation Xrotation Yrotation
                    JOINT LeftHandPinky3
                    {
                      OFFSET 1.6774 -0.349396 -0.4633
                      CHANNELS 3 Zrotation Xrotation Yrotation
                      End Site
                      {
                        OFFSET 1.4888 -0.4091 -0.3416
                      }
                    }
                  }
                }
                JOINT LeftHandThumb1
                {
                  OFFSET 1.833 -1.3875 1.3896
                  CHANNELS 3 Zrotation Xrotation Yrotation
                  JOINT LeftHandThumb2
                  {
                    OFFSET 3.4129 -1.121 2.5732
                    CHANNELS 3 Zrotation Xrotation Yrotation
                    JOINT LeftHandThumb3
                    {
                      OFFSET 2.2474 -0.804199 1.6192
                      CHANNELS 3 Zrotation Xrotation Yrotation
                      End Site
                      {
                        OFFSET 1.6527 -0.5689 1.1317
                      }
                    }
                  }
                }
              }
            }
          }
        }
        JOINT RightShoulder
        {
          OFFSET -2.2086 21.1115 7.2329
          CHANNELS 3 Zrotation Xrotation Yrotation
          JOINT RightArm
          {
            OFFSET -13.1216 3.0287 -4.9007
            CHANNELS 3 Zrotation Xrotation Yrotation
            JOINT RightForeArm
            {
              OFFSET -27.4081 -0.0973053 -0.2375
              CHANNELS 3 Zrotation Xrotation Yrotation
              JOINT RightHand
              {
                OFFSET -22.8641 0.0664063 -0.1369
                CHANNELS 3 Zrotation Xrotation Yrotation
                JOINT RightHandIndex1
                {
                  OFFSET -8.8614 0.774994 2.4612
                  CHANNELS 3 Zrotation Xrotation Yrotation
                  JOINT RightHandIndex2
                  {
                    OFFSET -3.3146 -0.808304 0.5841
                    CHANNELS 3 Zrotation Xrotation Yrotation
                    JOINT RightHandIndex3
                    {
                      OFFSET -2.2628 -0.552002 0.3989
                      CHANNELS 3 Zrotation Xrotation Yrotation
                      End Site
                      {
                        OFFSET -1.6102 -0.4807 0.2612
                      }
                    }
                  }
                }
                JOINT RightHandMiddle1
                {
                  OFFSET -8.9937 0.894989 0.2143
                  CHANNELS 3 Zrotation Xrotation Yrotation
                  JOINT RightHandMiddle2
                  {
                    OFFSET -4.0984 0.0113983 -0.0242
                    CHANNELS 3 Zrotation Xrotation Yrotation
                    JOINT RightHandMiddle3
                    {
                      OFFSET -2.2716 0.00691223 -0.0138001
                      CHANNELS 3 Zrotation Xrotation Yrotation
                      End Site
                      {
                        OFFSET -2.0404 -0.1441 0.0027
                      }
                    }
                  }
                }
                JOINT RightHandRing1
                {
                  OFFSET -8.5234 0.597198 -2.0164
                  CHANNELS 3 Zrotation Xrotation Yrotation
                  JOINT RightHandRing2
                  {
                    OFFSET -3.7188 -0.188309 -0.2328
                    CHANNELS 3 Zrotation Xrotation Yrotation
                    JOINT RightHandRing3
                    {
                      OFFSET -2.1191 -0.106598 -0.1332
                      CHANNELS 3 Zrotation Xrotation Yrotation
                      End Site
                      {
                        OFFSET -1.8737 -0.2304 -0.0886
                      }
                    }
                  }
                }
                JOINT RightHandPinky1
                {
                  OFFSET -7.9094 -0.601105 -3.4825
                  CHANNELS 3 Zrotation Xrotation Yrotation
                  JOINT RightHandPinky2
                  {
                    OFFSET -2.2874 -0.477005 -0.6314
                    CHANNELS 3 Zrotation Xrotation Yrotation
                    JOINT RightHandPinky3
                    {
                      OFFSET -1.6774 -0.349396 -0.4633
                      CHANNELS 3 Zrotation Xrotation Yrotation
                      End Site
                      {
                        OFFSET -1.4888 -0.4091 -0.3416
                      }
                    }
                  }
                }
                JOINT RightHandThumb1
                {
                  OFFSET -1.833 -1.38751 1.3896
                  CHANNELS 3 Zrotation Xrotation Yrotation
                  JOINT RightHandThumb2
                  {
                    OFFSET -3.41299 -1.12099 2.5732
                    CHANNELS 3 Zrotation Xrotation Yrotation
                    JOINT RightHandThumb3
                    {
                      OFFSET -2.24741 -0.804108 1.6192
                      CHANNELS 3 Zrotation Xrotation Yrotation
                      End Site
                      {
                        OFFSET -1.6527 -0.5689 1.1317
                      }
                    }
                  }
                }
              }
            }
          }
        }
      }
    }
  }
  JOINT RightUpLeg
  {
    OFFSET -9.1966 3.8861 -0.7581
    CHANNELS 3 Zrotation Xrotation Yrotation
    JOINT RightLeg
    {
      OFFSET -0.7359 -41.0265 0
      CHANNELS 3 Zrotation Xrotation Yrotation
      JOINT RightFoot
      {
        OFFSET 0 -40.2855 0
        CHANNELS 3 Zrotation Xrotation Yrotation
        JOINT RightToeBase
        {
          OFFSET 0 -5.6122 11.7359
          CHANNELS 3 Zrotation Xrotation Yrotation
          End Site
          {
            OFFSET 0 0 7.8731
          }
        }
      }
    }
  }
  JOINT LeftUpLeg
  {
    OFFSET 9.1965 3.8864 -0.7581
    CHANNELS 3 Zrotation Xrotation Yrotation
    JOINT LeftLeg
    {
      OFFSET 0.7359 -41.0268 0
      CHANNELS 3 Zrotation Xrotation Yrotation
      JOINT LeftFoot
      {
        OFFSET 0 -40.2855 0
        CHANNELS 3 Zrotation Xrotation Yrotation
        JOINT LeftToeBase
        {
          OFFSET 0 -5.6122 11.7359
          CHANNELS 3 Zrotation Xrotation Yrotation
          End Site
          {
            OFFSET 0 0 7.8731
          }
        }
      }
    }
  }
}
MOTION
Frames:	4
Frame Time:	0.0333333
5.84602e-005 68.8428 3.50346 0 0 -0 0 0 -0 0 0 -0 0 0 -0 0 0 -0 0 0 -0 0 0 -0 0 0 -0 0 0 -0 0 0 -0 0 0 -0 0 0 -0 0 0 -0 0 0 -0 -0.0146107 -8.87603e-005 -2.63497e-007 2.99804e-018 -2.42657e-020 -1.42182e-022 0 0 -0 -0.0187562 -0.001176 5.858e-005 5.06224e-018 3.88251e-019 1.21329e-020 0 0 -0 -0.012269 -0.00324817 0.000675346 -1.74678e-018 3.88251e-019 -0 0 0 -0 0 0 -0 0 0 -0 0 0 -0 0 0 -0 0 0 -0 0 0 -0 0 0 -0 0 0 -0 0 0 -0 0 0 -0 0.0149955 -9.10982e-005 2.64101e-007 -9.69331e-018 1.21329e-020 -4.7394e-023 0 0 -0 0.0189956 -0.00119102 -5.96516e-005 -5.41541e-019 0 2.42657e-020 0 0 -0 0.0122698 -0.00324857 -0.000673756 -2.00796e-019 0 -1.94126e-019 0 0 -0 0 0 -0 0 0 -0 3.39842 1.33031 -0.0637918 -5.65207e-008 0.834868 -0.000436188 -3.39935 -2.16518 -0.0642563 -8.89002e-024 -1.18485e-023 -1.48106e-024 -3.39844 1.35642 0.0640283 -3.18788e-007 0.782166 -0.000588827 3.39931 -2.13858 0.0634662 1.1399e-023 0 -0 
-2.44758 46.5751 10.4444 -33.3353 -33.3814 -0.00233506 0.195036 0.209901 -0.136895 0.390612 0.41935 -0.274521 0.390607 0.419324 -0.274528 3.29082 -11.0028 1.73125 8.05514 5.15961 -2.06292 -3.00616 -3.3019 0.989096 -13.3373 -6.04814 -25.1913 -28.7046 2.7755 -5.84237 -11.8983 1.68955 -3.21337 -3.18055e-015 6.36111e-015 9.54166e-015 7.95139e-016 7.15625e-015 1.27222e-014 -1.58901e-030 7.15625e-015 1.27222e-014 -3.18055e-015 6.36111e-015 9.54166e-015 -0.0147109 -8.78547e-005 -2.30472e-007 -7.95139e-016 3.18055e-015 3.18055e-015 -3.18055e-015 6.36111e-015 9.54166e-015 -0.0188135 -0.00118328 5.58643e-005 -7.95139e-016 -3.97569e-015 -3.18055e-015 -3.18055e-015 6.36111e-015 9.54166e-015 -0.0122663 -0.00324644 0.00067381 -1.59028e-015 -7.95139e-015 3.18055e-015 -3.18055e-015 6.36111e-015 9.54166e-015 7.95139e-016 7.15625e-015 1.27222e-014 -1.58901e-030 7.15625e-015 1.27222e-014 -4.69707 -4.84177 -5.6667 22.827 5.55066 19.2907 21.9199 1.59013 26.6932 16.4588 -3.95348 4.79718 -1.38846e-006 9.4373e-007 2.37952e-007 -2.08269e-006 1.41559e-006 3.56928e-007 -6.9423e-007 4.71865e-007 1.18976e-007 -1.38846e-006 9.4373e-007 2.37952e-007 0.0149744 -9.1682e-005 -6.24931e-007 -4.75813e-007 9.42355e-008 2.1513e-006 -1.38846e-006 9.4373e-007 2.37952e-007 0.01901 -0.00119048 -6.65285e-005 -6.94212e-007 4.71883e-007 1.18905e-007 -1.38846e-006 9.4373e-007 2.37952e-007 0.0122953 -0.00325379 -0.000677318 -6.94219e-007 4.71871e-007 1.18945e-007 -1.38846e-006 9.4373e-007 2.37952e-007 -2.08269e-006 1.41559e-006 3.56928e-007 -6.9423e-007 4.71865e-007 1.18976e-007 -3.97873 -12.8304 -5.497 11.8803 38.6063 -30.0187 0.515789 4.42386 2.35101 -1.5861e-006 1.63728e-006 7.02348e-007 -1.35693 -11.9402 4.13442 -0.497924 17.9898 -0.455475 2.11944 12.5663 -1.17878 3.22815e-006 -1.6768e-007 -4.05979e-007 
-0.685065 23.8566 15.3161 -66.677 -66.7629 -0.00987896 0.393546 0.415582 -0.236814 0.788807 0.82953 -0.476435 0.788817 0.829549 -0.476449 7.29328 -21.9752 3.66544 16.4871 10.299 -4.17651 -5.89761 -6.60082 1.98806 -31.3207 -8.52475 -50.854 -56.8448 5.46424 -11.725 -23.6071 3.36316 -6.43509 -7.87087e-007 -1.46019e-006 1.34075e-006 3.18055e-015 0 -1.27222e-014 -1.59028e-015 1.59028e-015 -0 -7.87087e-007 -1.46019e-006 1.34075e-006 -0.0146224 -9.24707e-005 2.98669e-006 -3.18055e-015 0 -0 -7.87087e-007 -1.46019e-006 1.34075e-006 -0.0187265 -0.00117233 6.04824e-005 1.59028e-015 1.59028e-015 3.18055e-015 -7.87087e-007 -1.46019e-006 1.34075e-006 -0.0123039 -0.00324983 0.000680507 4.77083e-015 -9.54166e-015 3.18055e-015 -7.87087e-007 -1.46019e-006 1.34075e-006 3.18055e-015 0 -1.27222e-014 -1.59028e-015 1.59028e-015 -0 -10.3577 -9.54065 -11.4534 42.1667 9.18967 38.9861 42.5811 2.12311 53.4172 33.5821 -7.82352 9.66222 -1.59028e-015 -1.59028e-015 1.27222e-014 7.95139e-015 -3.18055e-015 3.18055e-015 3.18055e-015 -6.36111e-015 -3.18055e-015 -1.59028e-015 -1.59028e-015 1.27222e-014 0.0149438 -8.89079e-005 -6.83316e-007 1.59028e-015 6.36111e-015 -0 -1.59028e-015 -1.59028e-015 1.27222e-014 0.0190251 -0.00119432 -5.74982e-005 -9.54166e-015 -2.70347e-014 6.36111e-015 -1.59028e-015 -1.59028e-015 1.27222e-014 0.0123617 -0.00327323 -0.000679511 -7.95139e-015 0 -3.18055e-015 -1.59028e-015 -1.59028e-015 1.27222e-014 7.95139e-015 -3.18055e-015 3.18055e-015 3.18055e-015 -6.36111e-015 -3.18055e-015 -12.7908 -24.9905 -11.0032 60.9569 44.3371 -81.1851 3.59245 13.4399 4.91328 8.34336e-007 6.16042e-008 -1.45183e-007 3.62978 -28.1573 9.20751 -0.141617 40.9055 -1.48722 1.36989 24.789 -2.53951 1.44605e-006 -1.32401e-007 -7.55504e-007 
1.67428 5.52473 17.5182 161.594 -89.9945 -108.404 0.529362 0.51846 -0.282276 1.06131 1.03429 -0.569315 1.06131 1.03431 -0.569342 10.3601 -29.5966 5.15671 22.6971 13.8815 -5.73246 -7.87142 -8.78492 2.68372 -45.0925 -6.77298 -68.5745 -76.1401 7.22787 -15.8654 -31.691 4.51664 -8.69955 -1.98785e-016 -2.50469e-014 -3.18055e-015 1.39149e-015 -2.52457e-014 3.18055e-015 1.3418e-015 -2.50469e-014 3.18055e-015 -1.98785e-016 -2.50469e-014 -3.18055e-015 -0.014629 -8.84866e-005 1.13961e-006 -7.45443e-016 1.98785e-016 -3.18055e-015 -1.98785e-016 -2.50469e-014 -3.18055e-015 -0.0187637 -0.00117692 5.53035e-005 -4.96962e-017 5.96354e-016 -3.18055e-015 -1.98785e-016 -2.50469e-014 -3.18055e-015 -0.012221 -0.00323447 0.000674631 -1.78906e-015 -1.98785e-016 4.77083e-015 -1.98785e-016 -2.50469e-014 -3.18055e-015 1.39149e-015 -2.52457e-014 3.18055e-015 1.3418e-015 -2.50469e-014 3.18055e-015 -14.8961 -12.5657 -15.6822 54.2868 9.76317 52.9129 56.7771 1.50265 72.0968 45.9755 -10.4065 13.1369 3.97569e-016 1.59028e-015 -6.36111e-015 7.95139e-016 3.18055e-015 -9.54166e-015 1.19271e-015 0 -1.27222e-014 3.97569e-016 1.59028e-015 -6.36111e-015 0.0150297 -9.28686e-005 -3.31421e-006 3.97569e-016 1.59028e-015 -6.36111e-015 3.97569e-016 1.59028e-015 -6.36111e-015 0.0189451 -0.00118764 -5.86186e-005 -1.76556e-031 1.59028e-015 6.36111e-015 3.97569e-016 1.59028e-015 -6.36111e-015 0.012315 -0.00325909 -0.000675762 3.97569e-016 0 -0 3.97569e-016 1.59028e-015 -6.36111e-015 7.95139e-016 3.18055e-015 -9.54166e-015 1.19271e-015 0 -1.27222e-014 -21.4216 -34.1121 -15.5677 90.2343 28.565 -101.432 5.67413 19.4986 6.78814 9.52894e-008 4.12298e-007 5.33885e-008 8.69408 -38.9791 14.0385 1.53797 55.0462 -3.12976 1.68249 34.8265 -3.88723 -8.41229e-007 -2.14072e-006 -2.3923e-006 
